# xmcd
#
# Track frame offsets: 
#        150
#        15802
#        36252
#        56582
#        78967
#        97465
#        123105
#        139590
#        161537
#        182287
#        194952
#        212817
#        229905
#        251425
#        273397
#        289275
#        309805
#        324777
#
# Disc length: 4540 seconds
#
# Revision: 2
# Processed by: cddbd v1.5.2PL0 Copyright (c) Steve Scherf et al.
# Submitted via: ExactAudioCopyFreeDBPlugin 1.0
#
DISCID=f411ba12
DTITLE=Various Artist - Blue Rose Broadcasts Vol.1 [CD 1)
DYEAR=1999
DGENRE=Country
TTITLE0=Elliott Murphy - Been Up These Stairs Before
TTITLE1=Elliott Murphy - Caught Short In The Long Run
TTITLE2=Elliott Murphy - You Never Know What You're In For
TTITLE3=Elliott Murphy - Diamonds By The Yard
TTITLE4=Elliott Murphy - I Wish I Was Picasso
TTITLE5=Elliott Murphy - Brown-Eyed Girl
TTITLE6=Steve Wynn - Nothing But The Shell
TTITLE7=Steve Wynn - From A Better Place
TTITLE8=Steve Wynn - Sweetness And Light
TTITLE9=Joseph Parsons - Boy Next Door
TTITLE10=Joseph Parsons - Over You
TTITLE11=Joseph Parsons - Bonaparte And Sharks
TTITLE12=Rich Hopkins and Luminarios - Nacodoches
TTITLE13=Rich Hopkins and Luminarios - Unglued
TTITLE14=Rich Hopkins and Luminarios - San Francisco Blvd.
TTITLE15=Todd McBride - Somebody Else
TTITLE16=Todd McBride - Chains
TTITLE17=Todd McBride - Wounded Ltd.
EXTD=
EXTT0=
EXTT1=
EXTT2=
EXTT3=
EXTT4=
EXTT5=
EXTT6=
EXTT7=
EXTT8=
EXTT9=
EXTT10=
EXTT11=
EXTT12=
EXTT13=
EXTT14=
EXTT15=
EXTT16=
EXTT17=
PLAYORDER=
